<svg id="SvgjsSvg1000" xmlns="http://www.w3.org/2000/svg" version="1.1" xmlns:xlink="http://www.w3.org/1999/xlink" xmlns:svgjs="http://svgjs.com/svgjs" width="68" height="68" viewBox="0 0 68 68"><title>Shape 47</title><desc>Created with Avocode.</desc><defs id="SvgjsDefs1001"></defs><path id="SvgjsPath1007" d="M239.768 85.707L257.359 126.411L226.31499999999997 108.369L236.11199999999997 85.707C236.72299999999996 85.1051 237.32999999999996 84.85419999999999 237.93199999999996 84.9545C238.54399999999995 84.8444 239.15599999999995 85.0953 239.76799999999997 85.707ZM237.09 115.637L218.52100000000002 126.411L225.984 109.181ZM237.992 142C228.66 142 220.575 138.648 213.964 132.037C207.352 125.42500000000001 204 117.33500000000001 204 107.99300000000001C204 98.65970000000002 207.352 90.57520000000001 213.964 83.96390000000001C220.575 77.35230000000001 228.66 74.00000000000001 237.992 74.00000000000001C247.33499999999998 74.00000000000001 255.42499999999998 77.35230000000001 262.036 83.96390000000001C268.648 90.57520000000001 272 98.65970000000002 272 107.99300000000001C272 117.33500000000001 268.648 125.42500000000001 262.036 132.036C255.425 138.648 247.335 142 237.992 142ZM237.992 77.6115C229.535 77.6115 222.51 80.5246 216.517 86.51740000000001C210.525 92.51010000000001 207.611 99.5348 207.611 107.99300000000001C207.611 116.46000000000001 210.52499999999998 123.49000000000001 216.517 129.483C222.51 135.475 229.535 138.389 237.992 138.389C246.45999999999998 138.389 253.48999999999998 135.47500000000002 259.483 129.483C265.475 123.49000000000001 268.389 116.46000000000001 268.389 107.99300000000001C268.389 99.5348 265.475 92.51010000000001 259.483 86.51740000000001H259.482C253.49000000000004 80.5246 246.461 77.6115 237.99200000000002 77.6115Z " fill="#ffffff" fill-opacity="1" transform="matrix(1,0,0,1,-204,-74)"></path></svg>